<svg xmlns="http://www.w3.org/2000/svg" version="1.1" xmlns:xlink="http://www.w3.org/1999/xlink" xmlns:svgjs="http://svgjs.dev/svgjs" width="1500" height="430" viewBox="0 0 1500 430"><g transform="matrix(1,0,0,1,1.2305182006983841,1.195769531250022)"><svg viewBox="0 0 223 64" data-background-color="#ffffff" preserveAspectRatio="xMidYMid meet" height="430" width="1500" xmlns="http://www.w3.org/2000/svg" xmlns:xlink="http://www.w3.org/1999/xlink"><g id="tight-bounds" transform="matrix(1,0,0,1,-0.18293703917049697,-0.17797500000000355)"><svg viewBox="0 0 223.365874078341 64.35595" height="64.35595" width="223.365874078341"><g><svg viewBox="0 0 223.365874078341 64.35595" height="64.35595" width="223.365874078341"><g><svg viewBox="0 0 223.365874078341 64.35595" height="64.35595" width="223.365874078341"><g id="textblocktransform"><svg viewBox="0 0 223.365874078341 64.35595" height="64.35595" width="223.365874078341" id="textblock"><g><svg viewBox="0 0 223.365874078341 64.35595" height="64.35595" width="223.365874078341"><g><svg><g></g><g></g></svg></g><g><svg><g><svg></svg></g><g></g></svg></g><g id="text-0"><svg viewBox="0 0 223.365874078341 64.35595" height="64.35595" width="223.365874078341"><g transform="matrix(1,0,0,1,0,0)"><svg width="156.42015" viewBox="2.1 -39.45 96.67 39.78" height="64.35595" data-palette-color="#113f67"><path d="M2.1-33.75L2.1 0 22 0 22-3.53 7.2-3.53 7.2-33.75 2.1-33.75ZM38.42 0.2L38.42 0.2Q45.07 0.2 48.26-3.49 51.45-7.18 51.45-14.9L51.45-14.9Q51.45-22.63 48.26-26.29 45.07-29.95 38.42-29.95L38.42-29.95Q31.8-29.95 28.6-26.29 25.4-22.63 25.4-14.9L25.4-14.9Q25.4-7.18 28.6-3.49 31.8 0.2 38.42 0.2ZM38.42-3.28L38.42-3.28Q34.95-3.28 32.7-5.71 30.45-8.15 30.45-14.88L30.45-14.88Q30.45-21.6 32.7-24.03 34.95-26.45 38.42-26.45L38.42-26.45Q41.9-26.45 44.15-24.03 46.4-21.6 46.4-14.88L46.4-14.88Q46.4-8.15 44.15-5.71 41.9-3.28 38.42-3.28ZM60.25-26.1L60.25 0 65.3 0 65.3-26.1 73.77-26.1 73.77-29.63 65.3-29.63 65.3-31.48Q65.3-34.25 67.42-35.15 69.55-36.05 73.35-36.05L73.35-36.05 74.1-36.05 74.1-39.45 73.25-39.45Q67.32-39.45 63.78-37.69 60.25-35.93 60.25-31.5L60.25-31.5 60.25-29.63 54.22-29.63 54.22-26.1 60.25-26.1ZM91.57 0.33L91.57 0.33Q94.32 0.33 96.82-0.3L96.82-0.3 96.82-3.73Q95.09-3.15 93.27-3.15L93.27-3.15Q91.22-3.15 90.09-4.03 88.97-4.9 88.97-7.63L88.97-7.63 88.97-26.08 98.77-26.08 98.77-29.63 88.97-29.63 88.97-36.33 83.89-36.33 83.89-29.63 76.97-29.63 76.97-26.08 83.89-26.08 83.89-6.45Q83.89-2.55 86.09-1.11 88.29 0.33 91.57 0.33Z" opacity="1" transform="matrix(1,0,0,1,0,0)" fill="#113f67" class="wordmark-text-0" data-fill-palette-color="primary"></path></svg></g><g><svg xmlns="http://www.w3.org/2000/svg" xml:space="preserve" version="1.0" viewBox="32.6 28.299999999999997 34.9 43.400000000000006" x="171.6142" y="0" height="64.35595" width="51.751674078341004" class="icon-dxe-0" data-fill-palette-color="accent" id="dxe-0"><path d="M65.8 65.7H34.2c-0.9 0-1.6-0.7-1.6-1.6V29.9c0-0.9 0.7-1.6 1.6-1.6h31.7c0.9 0 1.6 0.7 1.6 1.6v34.2c-0.1 0.9-0.8 1.6-1.7 1.6m-30-3.2h28.4v-31H35.8z" fill="#87c0cd" data-fill-palette-color="accent"></path><path d="M37.5 71.7c-0.9 0-1.6-0.7-1.6-1.6v-4.4c0-0.9 0.7-1.6 1.6-1.6s1.6 0.7 1.6 1.6v4.4c0 0.9-0.7 1.6-1.6 1.6M62.8 71.7c-0.9 0-1.6-0.7-1.6-1.6v-4.4c0-0.9 0.7-1.6 1.6-1.6s1.6 0.7 1.6 1.6v4.4c0 0.9-0.7 1.6-1.6 1.6M50 65.1c-0.9 0-1.6-0.7-1.6-1.6V30.6c0-0.9 0.7-1.6 1.6-1.6s1.6 0.7 1.6 1.6v32.9c0 0.8-0.7 1.6-1.6 1.6M56.2 50.5c-0.9 0-1.6-0.7-1.6-1.6v-3.2c0-0.9 0.7-1.6 1.6-1.6s1.6 0.7 1.6 1.6v3.2c0 0.8-0.7 1.6-1.6 1.6M44.1 50.5c-0.9 0-1.6-0.7-1.6-1.6v-3.2c0-0.9 0.7-1.6 1.6-1.6s1.6 0.7 1.6 1.6v3.2c0 0.8-0.7 1.6-1.6 1.6" fill="#87c0cd" data-fill-palette-color="accent"></path></svg></g></svg></g></svg></g></svg></g></svg></g></svg></g><defs></defs></svg><rect width="223.365874078341" height="64.35595" fill="none" stroke="none" visibility="hidden"></rect></g></svg></g></svg>